<svg width="720" height="720" xmlns="http://www.w3.org/2000/svg" xmlns:xlink="http://www.w3.org/1999/xlink" xml:space="preserve" overflow="hidden"><g transform="translate(-542 48)"><path d="M602.995 305.855 765.678 274.147 808.434 493.512 645.75 525.22Z" fill="#2E75B6"/><path d="M701.247 315.988 866.997 315.988 866.997 539.488 701.247 539.488Z" fill="#F2F2F2"/><path d="M843.372 504.894 724.872 504.894 724.872 504.144 843.372 504.144 843.372 504.894ZM843.372 497.244 724.872 497.244 724.872 497.994 843.372 497.994 843.372 497.244ZM843.372 490.344 724.872 490.344 724.872 491.094 843.372 491.094 843.372 490.344ZM843.372 483.444 724.872 483.444 724.872 484.194 843.372 484.194 843.372 483.444ZM843.372 476.544 724.872 476.544 724.872 477.294 843.372 477.294 843.372 476.544ZM843.372 469.644 724.872 469.644 724.872 470.394 843.372 470.394 843.372 469.644ZM843.372 462.744 724.872 462.744 724.872 463.494 843.372 463.494 843.372 462.744ZM843.372 455.844 724.872 455.844 724.872 456.594 843.372 456.594 843.372 455.844ZM843.372 448.944 724.872 448.944 724.872 449.694 843.372 449.694 843.372 448.944ZM843.372 442.044 724.872 442.044 724.872 442.794 843.372 442.794 843.372 442.044ZM843.372 435.144 724.872 435.144 724.872 435.894 843.372 435.894 843.372 435.144ZM843.372 428.244 724.872 428.244 724.872 428.994 843.372 428.994 843.372 428.244ZM843.372 421.344 724.872 421.344 724.872 422.094 843.372 422.094 843.372 421.344ZM843.372 414.444 724.872 414.444 724.872 415.194 843.372 415.194 843.372 414.444ZM843.372 407.544 724.872 407.544 724.872 408.294 843.372 408.294 843.372 407.544ZM843.372 400.644 724.872 400.644 724.872 401.394 843.372 401.394 843.372 400.644ZM843.372 393.744 724.872 393.744 724.872 394.494 843.372 394.494 843.372 393.744ZM843.372 386.844 724.872 386.844 724.872 387.594 843.372 387.594 843.372 386.844ZM843.372 379.944 724.872 379.944 724.872 380.694 843.372 380.694 843.372 379.944ZM843.372 373.044 724.872 373.044 724.872 373.794 843.372 373.794 843.372 373.044ZM843.372 366.144 724.872 366.144 724.872 366.894 843.372 366.894 843.372 366.144ZM843.372 359.244 724.872 359.244 724.872 359.994 843.372 359.994 843.372 359.244ZM843.372 352.344 724.872 352.344 724.872 353.094 843.372 353.094 843.372 352.344Z" fill="#CFCFCF"/><path d="M1205.41 336.333C1202.56 330.114 1183.06 332.652 1153.62 337.232 1133.57 340.353 1110.84 343.891 1108.7 339.43 1108.23 338.452 1108.66 336.377 1113.37 332.053 1116.34 329.336 1117.29 326.536 1116.19 323.729 1112.16 313.363 1080.39 306.75 1065.12 306.75L1061 306.75 1061 302.25 1036.25 302.25 1036.25 313.12 1061 313.12 1061 308.25 1065.12 308.25C1082.28 308.25 1111.36 315.428 1114.8 324.273 1115.65 326.476 1114.86 328.658 1112.36 330.947 1107.91 335.03 1106.31 337.932 1107.35 340.08 1109.8 345.176 1126.55 342.963 1153.85 338.714 1176.17 335.241 1201.46 331.305 1204.04 336.956 1204.79 338.582 1203.8 342.11 1194.88 349.678 1156.59 382.167 1164.59 411.319 1174.72 448.227 1177.86 459.674 1181.1 471.511 1183.38 484.628 1188.15 512.139 1175.67 527.905 1164.37 536.286 1144.87 550.743 1115.66 553.073 1107.26 548.842 1106.4 548.408 1105.37 547.692 1105.37 546.749L1105.37 539.999 1108.37 539.999 1108.37 521.999 1100.87 521.999 1100.87 539.999 1103.87 539.999 1103.87 546.749C1103.87 547.691 1104.34 549.051 1106.58 550.182 1109.15 551.475 1113.64 552.23 1119.22 552.23 1132.1 552.23 1150.81 548.207 1165.26 537.49 1176.91 528.858 1189.76 512.635 1184.86 484.371 1182.57 471.184 1179.31 459.31 1176.16 447.83 1171.05 429.19 1166.63 413.092 1168.13 397.424 1169.76 380.292 1178.57 365.484 1195.85 350.822 1203.81 344.074 1206.84 339.469 1205.41 336.333Z" fill="#CFCFCF"/><path d="M1033.75 511.577 885.491 534.393 883.899 524.048 1032.15 501.232 1048.51 503.992Z" fill="#2E75B6"/><path d="M908.001 522.843 998.44 508.926 998.554 509.668 908.116 523.585Z" fill="#FFFFFF"/><path d="M678.556 465 607.21 465C603.863 465 601.149 462.286 601.149 458.939L601.149 309.734C601.149 306.387 603.863 303.674 607.21 303.674L678.556 303.674C681.904 303.674 684.617 306.387 684.617 309.734L684.617 458.939C684.617 462.286 681.904 465 678.556 465Z" fill="#505050"/><path d="M619.453 388.615C619.453 391.02 617.503 392.969 615.098 392.969 612.693 392.969 610.744 391.02 610.744 388.615 610.744 386.21 612.693 384.26 615.098 384.26 617.503 384.26 619.453 386.21 619.453 388.615Z" fill="#737373"/><path d="M633.606 388.615C633.606 391.02 631.656 392.969 629.251 392.969 626.846 392.969 624.897 391.02 624.897 388.615 624.897 386.21 626.846 384.26 629.251 384.26 631.656 384.26 633.606 386.21 633.606 388.615Z" fill="#737373"/><path d="M617.168 364.561C617.168 366.164 615.868 367.464 614.265 367.464 612.661 367.464 611.362 366.164 611.362 364.561 611.362 362.957 612.661 361.658 614.265 361.658 615.868 361.658 617.168 362.957 617.168 364.561Z" fill="#CFCFCF"/><path d="M631.321 364.561C631.321 366.164 630.021 367.464 628.418 367.464 626.815 367.464 625.515 366.164 625.515 364.561 625.515 362.957 626.815 361.658 628.418 361.658 630.021 361.658 631.321 362.957 631.321 364.561Z" fill="#737373"/><path d="M647.759 388.615C647.759 391.02 645.809 392.969 643.404 392.969 641 392.969 639.05 391.02 639.05 388.615 639.05 386.21 641 384.26 643.404 384.26 645.809 384.26 647.759 386.21 647.759 388.615Z" fill="#737373"/><path d="M661.912 388.615C661.912 391.02 659.963 392.969 657.558 392.969 655.153 392.969 653.203 391.02 653.203 388.615 653.203 386.21 655.153 384.26 657.558 384.26 659.963 384.26 661.912 386.21 661.912 388.615Z" fill="#737373"/><path d="M676.065 388.615C676.065 391.02 674.116 392.969 671.711 392.969 669.306 392.969 667.357 391.02 667.357 388.615 667.357 386.21 669.306 384.26 671.711 384.26 674.116 384.26 676.065 386.21 676.065 388.615Z" fill="#737373"/><path d="M619.453 402.405C619.453 404.81 617.503 406.76 615.098 406.76 612.693 406.76 610.744 404.81 610.744 402.405 610.744 400 612.693 398.05 615.098 398.05 617.503 398.05 619.453 400 619.453 402.405Z" fill="#CFCFCF"/><path d="M633.606 402.405C633.606 404.81 631.656 406.76 629.251 406.76 626.846 406.76 624.897 404.81 624.897 402.405 624.897 400 626.846 398.05 629.251 398.05 631.656 398.05 633.606 400 633.606 402.405Z" fill="#737373"/><path d="M647.759 402.405C647.759 404.81 645.809 406.76 643.404 406.76 641 406.76 639.05 404.81 639.05 402.405 639.05 400 641 398.05 643.404 398.05 645.809 398.05 647.759 400 647.759 402.405Z" fill="#737373"/><path d="M661.912 402.405C661.912 404.81 659.963 406.76 657.558 406.76 655.153 406.76 653.203 404.81 653.203 402.405 653.203 400 655.153 398.05 657.558 398.05 659.963 398.05 661.912 400 661.912 402.405Z" fill="#737373"/><path d="M676.065 402.405C676.065 404.81 674.116 406.76 671.711 406.76 669.306 406.76 667.357 404.81 667.357 402.405 667.357 400 669.306 398.05 671.711 398.05 674.116 398.05 676.065 400 676.065 402.405Z" fill="#CFCFCF"/><path d="M619.453 416.195C619.453 418.6 617.503 420.55 615.098 420.55 612.693 420.55 610.744 418.6 610.744 416.195 610.744 413.79 612.693 411.841 615.098 411.841 617.503 411.841 619.453 413.79 619.453 416.195Z" fill="#CFCFCF"/><path d="M633.606 416.195C633.606 418.6 631.656 420.55 629.251 420.55 626.846 420.55 624.897 418.6 624.897 416.195 624.897 413.79 626.846 411.841 629.251 411.841 631.656 411.841 633.606 413.79 633.606 416.195Z" fill="#737373"/><path d="M647.759 416.195C647.759 418.6 645.809 420.55 643.404 420.55 641 420.55 639.05 418.6 639.05 416.195 639.05 413.79 641 411.841 643.404 411.841 645.809 411.841 647.759 413.79 647.759 416.195Z" fill="#737373"/><path d="M661.912 416.195C661.912 418.6 659.963 420.55 657.558 420.55 655.153 420.55 653.203 418.6 653.203 416.195 653.203 413.79 655.153 411.841 657.558 411.841 659.963 411.841 661.912 413.79 661.912 416.195Z" fill="#737373"/><path d="M676.065 416.195C676.065 418.6 674.116 420.55 671.711 420.55 669.306 420.55 667.357 418.6 667.357 416.195 667.357 413.79 669.306 411.841 671.711 411.841 674.116 411.841 676.065 413.79 676.065 416.195Z" fill="#CFCFCF"/><path d="M619.453 429.986C619.453 432.39 617.503 434.34 615.098 434.34 612.693 434.34 610.744 432.39 610.744 429.986 610.744 427.581 612.693 425.631 615.098 425.631 617.503 425.631 619.453 427.581 619.453 429.986Z" fill="#CFCFCF"/><path d="M633.606 429.986C633.606 432.39 631.656 434.34 629.251 434.34 626.846 434.34 624.897 432.39 624.897 429.986 624.897 427.581 626.846 425.631 629.251 425.631 631.656 425.631 633.606 427.581 633.606 429.986Z" fill="#737373"/><path d="M647.759 429.986C647.759 432.39 645.809 434.34 643.404 434.34 641 434.34 639.05 432.39 639.05 429.986 639.05 427.581 641 425.631 643.404 425.631 645.809 425.631 647.759 427.581 647.759 429.986Z" fill="#737373"/><path d="M661.912 429.986C661.912 432.39 659.963 434.34 657.558 434.34 655.153 434.34 653.203 432.39 653.203 429.986 653.203 427.581 655.153 425.631 657.558 425.631 659.963 425.631 661.912 427.581 661.912 429.986Z" fill="#737373"/><path d="M676.065 429.986C676.065 432.39 674.116 434.34 671.711 434.34 669.306 434.34 667.357 432.39 667.357 429.986 667.357 427.581 669.306 425.631 671.711 425.631 674.116 425.631 676.065 427.581 676.065 429.986Z" fill="#CFCFCF"/><path d="M619.453 443.776C619.453 446.181 617.503 448.13 615.098 448.13 612.693 448.13 610.744 446.181 610.744 443.776 610.744 441.371 612.693 439.421 615.098 439.421 617.503 439.421 619.453 441.371 619.453 443.776Z" fill="#CFCFCF"/><path d="M633.606 443.776C633.606 446.181 631.656 448.13 629.251 448.13 626.846 448.13 624.897 446.181 624.897 443.776 624.897 441.371 626.846 439.421 629.251 439.421 631.656 439.421 633.606 441.371 633.606 443.776Z" fill="#737373"/><path d="M647.759 443.776C647.759 446.181 645.809 448.13 643.404 448.13 641 448.13 639.05 446.181 639.05 443.776 639.05 441.371 641 439.421 643.404 439.421 645.809 439.421 647.759 441.371 647.759 443.776Z" fill="#CFCFCF"/><path d="M661.912 443.776C661.912 446.181 659.963 448.13 657.558 448.13 655.153 448.13 653.203 446.181 653.203 443.776 653.203 441.371 655.153 439.421 657.558 439.421 659.963 439.421 661.912 441.371 661.912 443.776Z" fill="#2E75B6"/><path d="M676.065 443.776C676.065 446.181 674.116 448.13 671.711 448.13 669.306 448.13 667.357 446.181 667.357 443.776 667.357 441.371 669.306 439.421 671.711 439.421 674.116 439.421 676.065 441.371 676.065 443.776Z" fill="#CFCFCF"/><path d="M608.683 326.328 678.36 326.328 678.36 351.409 608.683 351.409Z" fill="#CFCFCF"/><path d="M608.19 315.806 625.897 315.806 625.897 319.412 608.19 319.412Z" fill="#CFCFCF"/><path d="M1146.83 371.242C1146.83 367.105 1143.48 363.75 1139.34 363.75L1070.86 363.75C1066.72 363.75 1063.37 367.105 1063.37 371.242L1063.37 518.334C1063.37 522.472 1066.72 525.826 1070.86 525.826L1139.34 525.826C1143.48 525.826 1146.83 522.472 1146.83 518.334L1146.83 371.242Z" fill="#505050"/><path d="M1067.54 372 1142.66 372 1142.66 516.232 1067.54 516.232Z" fill="#E6E6E6"/><path d="M1067.54 468.96 1067.54 495.141 1067.54 516.232 1142.66 516.232 1142.66 393.839Z" fill="#D2D2D2"/><path d="M1124.12 462 1085.12 462C1083.87 462 1082.87 460.993 1082.87 459.75 1082.87 458.507 1083.87 457.5 1085.12 457.5L1124.12 457.5C1125.36 457.5 1126.37 458.507 1126.37 459.75 1126.37 460.993 1125.36 462 1124.12 462Z" fill="#FFFFFF"/><path d="M1124.12 472.5 1085.12 472.5C1083.87 472.5 1082.87 471.493 1082.87 470.25 1082.87 469.007 1083.87 468 1085.12 468L1124.12 468C1125.36 468 1126.37 469.007 1126.37 470.25 1126.37 471.493 1125.36 472.5 1124.12 472.5Z" fill="#FFFFFF"/><path d="M1036.25 276.75 1045.37 276.75 1045.37 297.75 1036.25 297.75Z" fill="#737373"/><path d="M1030.9 465 729.399 465C724.428 465 720.399 460.97 720.399 456L720.399 249C720.399 244.03 724.428 240 729.399 240L1030.9 240C1035.87 240 1039.9 244.03 1039.9 249L1039.9 456C1039.9 460.971 1035.87 465 1030.9 465Z" fill="#737373"/><path d="M767.649 237 993.399 237 993.399 258.75 767.649 258.75Z" fill="#2F2F2F"/><path d="M928.858 454.5 831.236 454.5C828.676 454.5 826.6 452.425 826.6 449.864L826.6 396.136C826.6 393.575 828.676 391.5 831.236 391.5L928.858 391.5C931.419 391.5 933.494 393.575 933.494 396.136L933.494 449.864C933.494 452.425 931.418 454.5 928.858 454.5Z" fill="#505050"/><path d="M1019.07 381.75 741.907 381.635C738.779 381.634 736.243 379.097 736.243 375.969L736.243 262.568C736.243 259.437 738.781 256.901 741.912 256.901L1019.08 257.016C1022.2 257.018 1024.74 259.554 1024.74 262.682L1024.74 376.084C1024.74 379.214 1022.2 381.752 1019.07 381.75Z" fill="#505050"/><path d="M767.748 275.462 744.6 275.462C743.589 275.462 742.77 276.282 742.77 277.293L742.77 290.107C742.77 291.118 743.589 291.938 744.6 291.938L767.748 291.938C768.759 291.938 769.578 291.118 769.578 290.107L769.578 277.293C769.578 276.282 768.759 275.462 767.748 275.462Z" fill="#2F2F2F"/><path d="M773.028 290.107 773.028 277.293C773.028 276.282 773.848 275.462 774.859 275.462L787.672 275.462C788.683 275.462 789.503 276.282 789.503 277.293L789.503 290.107C789.503 291.118 788.683 291.938 787.672 291.938L774.859 291.938C773.848 291.938 773.028 291.118 773.028 290.107Z" fill="#2F2F2F"/><path d="M792.952 290.107 792.952 277.293C792.952 276.282 793.772 275.462 794.783 275.462L807.597 275.462C808.608 275.462 809.427 276.282 809.427 277.293L809.427 290.107C809.427 291.118 808.608 291.938 807.597 291.938L794.783 291.938C793.772 291.938 792.952 291.118 792.952 290.107Z" fill="#2F2F2F"/><path d="M812.878 290.107 812.878 277.293C812.878 276.282 813.697 275.462 814.708 275.462L827.522 275.462C828.533 275.462 829.353 276.282 829.353 277.293L829.353 290.107C829.353 291.118 828.533 291.938 827.522 291.938L814.708 291.938C813.697 291.938 812.878 291.118 812.878 290.107Z" fill="#2F2F2F"/><path d="M832.802 290.107 832.802 277.293C832.802 276.282 833.622 275.462 834.633 275.462L847.447 275.462C848.458 275.462 849.277 276.282 849.277 277.293L849.277 290.107C849.277 291.118 848.458 291.938 847.447 291.938L834.633 291.938C833.622 291.938 832.802 291.118 832.802 290.107Z" fill="#2F2F2F"/><path d="M852.727 290.107 852.727 277.293C852.727 276.282 853.546 275.462 854.557 275.462L867.371 275.462C868.382 275.462 869.202 276.282 869.202 277.293L869.202 290.107C869.202 291.118 868.382 291.938 867.371 291.938L854.557 291.938C853.546 291.938 852.727 291.118 852.727 290.107Z" fill="#2F2F2F"/><path d="M872.651 290.107 872.651 277.293C872.651 276.282 873.471 275.462 874.482 275.462L887.296 275.462C888.307 275.462 889.126 276.282 889.126 277.293L889.126 290.107C889.126 291.118 888.307 291.938 887.296 291.938L874.482 291.938C873.471 291.938 872.651 291.118 872.651 290.107Z" fill="#2F2F2F"/><path d="M892.576 290.107 892.576 277.293C892.576 276.282 893.395 275.462 894.406 275.462L907.22 275.462C908.231 275.462 909.051 276.282 909.051 277.293L909.051 290.107C909.051 291.118 908.231 291.938 907.22 291.938L894.406 291.938C893.395 291.938 892.576 291.118 892.576 290.107Z" fill="#2F2F2F"/><path d="M912.501 290.107 912.501 277.293C912.501 276.282 913.32 275.462 914.331 275.462L927.145 275.462C928.156 275.462 928.976 276.282 928.976 277.293L928.976 290.107C928.976 291.118 928.156 291.938 927.145 291.938L914.331 291.938C913.32 291.938 912.501 291.118 912.501 290.107Z" fill="#2F2F2F"/><path d="M932.425 290.107 932.425 277.293C932.425 276.282 933.245 275.462 934.256 275.462L947.07 275.462C948.081 275.462 948.901 276.282 948.901 277.293L948.901 290.107C948.901 291.118 948.081 291.938 947.07 291.938L934.256 291.938C933.244 291.938 932.425 291.118 932.425 290.107Z" fill="#2F2F2F"/><path d="M952.35 290.107 952.35 277.293C952.35 276.282 953.169 275.462 954.18 275.462L966.994 275.462C968.005 275.462 968.825 276.282 968.825 277.293L968.825 290.107C968.825 291.118 968.005 291.938 966.994 291.938L954.18 291.938C953.169 291.938 952.35 291.118 952.35 290.107Z" fill="#2F2F2F"/><path d="M972.274 290.107 972.274 277.293C972.274 276.282 973.094 275.462 974.105 275.462L986.919 275.462C987.93 275.462 988.75 276.282 988.75 277.293L988.75 290.107C988.75 291.118 987.93 291.938 986.919 291.938L974.105 291.938C973.094 291.938 972.274 291.118 972.274 290.107Z" fill="#2F2F2F"/><path d="M757.414 312.988 744.6 312.988C743.589 312.988 742.77 312.169 742.77 311.158L742.77 298.344C742.77 297.333 743.589 296.513 744.6 296.513L757.414 296.513C758.425 296.513 759.245 297.333 759.245 298.344L759.245 311.158C759.244 312.169 758.424 312.988 757.414 312.988Z" fill="#2F2F2F"/><path d="M762.694 311.158 762.694 298.344C762.694 297.333 763.514 296.513 764.525 296.513L777.339 296.513C778.35 296.513 779.169 297.333 779.169 298.344L779.169 311.158C779.169 312.169 778.35 312.988 777.339 312.988L764.525 312.988C763.514 312.988 762.694 312.169 762.694 311.158Z" fill="#2F2F2F"/><path d="M782.619 311.158 782.619 298.344C782.619 297.333 783.438 296.513 784.449 296.513L797.263 296.513C798.274 296.513 799.094 297.333 799.094 298.344L799.094 311.158C799.094 312.169 798.274 312.988 797.263 312.988L784.449 312.988C783.438 312.988 782.619 312.169 782.619 311.158Z" fill="#2F2F2F"/><path d="M802.543 311.158 802.543 298.344C802.543 297.333 803.363 296.513 804.374 296.513L817.188 296.513C818.199 296.513 819.018 297.333 819.018 298.344L819.018 311.158C819.018 312.169 818.199 312.988 817.188 312.988L804.374 312.988C803.363 312.988 802.543 312.169 802.543 311.158Z" fill="#2F2F2F"/><path d="M822.469 311.158 822.469 298.344C822.469 297.333 823.288 296.513 824.299 296.513L837.113 296.513C838.124 296.513 838.944 297.333 838.944 298.344L838.944 311.158C838.944 312.169 838.124 312.988 837.113 312.988L824.299 312.988C823.287 312.988 822.469 312.169 822.469 311.158Z" fill="#2F2F2F"/><path d="M842.393 311.158 842.393 298.344C842.393 297.333 843.213 296.513 844.224 296.513L857.037 296.513C858.049 296.513 858.868 297.333 858.868 298.344L858.868 311.158C858.868 312.169 858.049 312.988 857.037 312.988L844.224 312.988C843.213 312.988 842.393 312.169 842.393 311.158Z" fill="#2F2F2F"/><path d="M862.318 311.158 862.318 298.344C862.318 297.333 863.137 296.513 864.148 296.513L876.962 296.513C877.973 296.513 878.793 297.333 878.793 298.344L878.793 311.158C878.793 312.169 877.973 312.988 876.962 312.988L864.148 312.988C863.137 312.988 862.318 312.169 862.318 311.158Z" fill="#2F2F2F"/><path d="M882.242 311.158 882.242 298.344C882.242 297.333 883.062 296.513 884.073 296.513L896.886 296.513C897.897 296.513 898.717 297.333 898.717 298.344L898.717 311.158C898.717 312.169 897.897 312.988 896.886 312.988L884.073 312.988C883.062 312.988 882.242 312.169 882.242 311.158Z" fill="#2F2F2F"/><path d="M902.167 311.158 902.167 298.344C902.167 297.333 902.986 296.513 903.997 296.513L916.811 296.513C917.822 296.513 918.642 297.333 918.642 298.344L918.642 311.158C918.642 312.169 917.822 312.988 916.811 312.988L903.997 312.988C902.986 312.988 902.167 312.169 902.167 311.158Z" fill="#2F2F2F"/><path d="M922.092 311.158 922.092 298.344C922.092 297.333 922.911 296.513 923.922 296.513L936.736 296.513C937.747 296.513 938.567 297.333 938.567 298.344L938.567 311.158C938.567 312.169 937.747 312.988 936.736 312.988L923.922 312.988C922.911 312.988 922.092 312.169 922.092 311.158Z" fill="#2F2F2F"/><path d="M942.016 311.158 942.016 298.344C942.016 297.333 942.836 296.513 943.847 296.513L956.661 296.513C957.672 296.513 958.492 297.333 958.492 298.344L958.492 311.158C958.492 312.169 957.672 312.988 956.661 312.988L943.847 312.988C942.835 312.988 942.016 312.169 942.016 311.158Z" fill="#2F2F2F"/><path d="M961.941 311.158 961.941 298.344C961.941 297.333 962.76 296.513 963.771 296.513L976.585 296.513C977.596 296.513 978.416 297.333 978.416 298.344L978.416 311.158C978.416 312.169 977.596 312.988 976.585 312.988L963.771 312.988C962.76 312.988 961.941 312.169 961.941 311.158Z" fill="#2F2F2F"/><path d="M981.865 311.158 981.865 298.344C981.865 297.333 982.685 296.513 983.696 296.513L996.51 296.513C997.521 296.513 998.34 297.333 998.34 298.344L998.34 311.158C998.34 312.169 997.521 312.988 996.51 312.988L983.696 312.988C982.685 312.988 981.865 312.169 981.865 311.158Z" fill="#2F2F2F"/><path d="M1016.43 312.988 1003.62 312.988C1002.61 312.988 1001.79 312.169 1001.79 311.158L1001.79 298.344C1001.79 297.333 1002.61 296.513 1003.62 296.513L1016.43 296.513C1017.45 296.513 1018.27 297.333 1018.27 298.344L1018.27 311.158C1018.27 312.169 1017.45 312.988 1016.43 312.988Z" fill="#2F2F2F"/><path d="M757.414 270.887 744.6 270.887C743.589 270.887 742.77 270.067 742.77 269.056L742.77 264.479C742.77 263.468 743.589 262.648 744.6 262.648L757.414 262.648C758.425 262.648 759.245 263.468 759.245 264.479L759.245 269.056C759.244 270.067 758.424 270.887 757.414 270.887Z" fill="#2F2F2F"/><path d="M762.694 269.056 762.694 264.479C762.694 263.468 763.514 262.648 764.525 262.648L777.339 262.648C778.35 262.648 779.169 263.468 779.169 264.479L779.169 269.056C779.169 270.067 778.35 270.887 777.339 270.887L764.525 270.887C763.514 270.887 762.694 270.067 762.694 269.056Z" fill="#2F2F2F"/><path d="M782.619 269.056 782.619 264.479C782.619 263.468 783.438 262.648 784.449 262.648L797.263 262.648C798.274 262.648 799.094 263.468 799.094 264.479L799.094 269.056C799.094 270.067 798.274 270.887 797.263 270.887L784.449 270.887C783.438 270.887 782.619 270.067 782.619 269.056Z" fill="#2F2F2F"/><path d="M802.543 269.056 802.543 264.479C802.543 263.468 803.363 262.648 804.374 262.648L817.188 262.648C818.199 262.648 819.018 263.468 819.018 264.479L819.018 269.056C819.018 270.067 818.199 270.887 817.188 270.887L804.374 270.887C803.363 270.887 802.543 270.067 802.543 269.056Z" fill="#2F2F2F"/><path d="M822.469 269.056 822.469 264.479C822.469 263.468 823.288 262.648 824.299 262.648L837.113 262.648C838.124 262.648 838.944 263.468 838.944 264.479L838.944 269.056C838.944 270.067 838.124 270.887 837.113 270.887L824.299 270.887C823.287 270.887 822.469 270.067 822.469 269.056Z" fill="#2F2F2F"/><path d="M842.393 269.056 842.393 264.479C842.393 263.468 843.213 262.648 844.224 262.648L857.037 262.648C858.049 262.648 858.868 263.468 858.868 264.479L858.868 269.056C858.868 270.067 858.049 270.887 857.037 270.887L844.224 270.887C843.213 270.887 842.393 270.067 842.393 269.056Z" fill="#2F2F2F"/><path d="M862.318 269.056 862.318 264.479C862.318 263.468 863.137 262.648 864.148 262.648L876.962 262.648C877.973 262.648 878.793 263.468 878.793 264.479L878.793 269.056C878.793 270.067 877.973 270.887 876.962 270.887L864.148 270.887C863.137 270.887 862.318 270.067 862.318 269.056Z" fill="#2F2F2F"/><path d="M882.242 269.056 882.242 264.479C882.242 263.468 883.062 262.648 884.073 262.648L896.886 262.648C897.897 262.648 898.717 263.468 898.717 264.479L898.717 269.056C898.717 270.067 897.897 270.887 896.886 270.887L884.073 270.887C883.062 270.887 882.242 270.067 882.242 269.056Z" fill="#2F2F2F"/><path d="M902.167 269.056 902.167 264.479C902.167 263.468 902.986 262.648 903.997 262.648L916.811 262.648C917.822 262.648 918.642 263.468 918.642 264.479L918.642 269.056C918.642 270.067 917.822 270.887 916.811 270.887L903.997 270.887C902.986 270.887 902.167 270.067 902.167 269.056Z" fill="#2F2F2F"/><path d="M922.092 269.056 922.092 264.479C922.092 263.468 922.911 262.648 923.922 262.648L936.736 262.648C937.747 262.648 938.567 263.468 938.567 264.479L938.567 269.056C938.567 270.067 937.747 270.887 936.736 270.887L923.922 270.887C922.911 270.887 922.092 270.067 922.092 269.056Z" fill="#2F2F2F"/><path d="M942.016 269.056 942.016 264.479C942.016 263.468 942.836 262.648 943.847 262.648L956.661 262.648C957.672 262.648 958.492 263.468 958.492 264.479L958.492 269.056C958.492 270.067 957.672 270.887 956.661 270.887L943.847 270.887C942.835 270.887 942.016 270.067 942.016 269.056Z" fill="#2F2F2F"/><path d="M961.941 269.056 961.941 264.479C961.941 263.468 962.76 262.648 963.771 262.648L976.585 262.648C977.596 262.648 978.416 263.468 978.416 264.479L978.416 269.056C978.416 270.067 977.596 270.887 976.585 270.887L963.771 270.887C962.76 270.887 961.941 270.067 961.941 269.056Z" fill="#2F2F2F"/><path d="M981.865 269.056 981.865 264.479C981.865 263.468 982.685 262.648 983.696 262.648L996.51 262.648C997.521 262.648 998.34 263.468 998.34 264.479L998.34 269.056C998.34 270.067 997.521 270.887 996.51 270.887L983.696 270.887C982.685 270.887 981.865 270.067 981.865 269.056Z" fill="#2F2F2F"/><path d="M1016.43 270.887 1003.62 270.887C1002.61 270.887 1001.79 270.067 1001.79 269.056L1001.79 264.479C1001.79 263.468 1002.61 262.648 1003.62 262.648L1016.43 262.648C1017.45 262.648 1018.27 263.468 1018.27 264.479L1018.27 269.056C1018.27 270.067 1017.45 270.887 1016.43 270.887Z" fill="#2F2F2F"/><path d="M767.748 317.565 744.6 317.565C743.589 317.565 742.77 318.385 742.77 319.396L742.77 332.21C742.77 333.221 743.589 334.04 744.6 334.04L767.748 334.04C768.759 334.04 769.578 333.221 769.578 332.21L769.578 319.395C769.578 318.384 768.759 317.565 767.748 317.565Z" fill="#2F2F2F"/><path d="M1016.7 317.565 993.552 317.565C992.542 317.565 991.722 318.385 991.722 319.396L991.722 332.21C991.722 333.221 992.542 334.04 993.552 334.04L1016.7 334.04C1017.71 334.04 1018.53 333.221 1018.53 332.21L1018.53 319.395C1018.53 318.384 1017.71 317.565 1016.7 317.565Z" fill="#2F2F2F"/><path d="M1016.7 275.462 993.552 275.462C992.542 275.462 991.722 276.282 991.722 277.293L991.722 290.107C991.722 291.118 992.542 291.938 993.552 291.938L1016.7 291.938C1017.71 291.938 1018.53 291.118 1018.53 290.107L1018.53 277.293C1018.53 276.282 1017.71 275.462 1016.7 275.462Z" fill="#2F2F2F"/><path d="M773.028 332.209 773.028 319.395C773.028 318.384 773.848 317.564 774.859 317.564L787.672 317.564C788.683 317.564 789.503 318.384 789.503 319.395L789.503 332.209C789.503 333.22 788.683 334.039 787.672 334.039L774.859 334.039C773.848 334.039 773.028 333.22 773.028 332.209Z" fill="#2F2F2F"/><path d="M792.952 332.209 792.952 319.395C792.952 318.384 793.772 317.564 794.783 317.564L807.597 317.564C808.608 317.564 809.427 318.384 809.427 319.395L809.427 332.209C809.427 333.22 808.608 334.039 807.597 334.039L794.783 334.039C793.772 334.039 792.952 333.22 792.952 332.209Z" fill="#2F2F2F"/><path d="M812.878 332.209 812.878 319.395C812.878 318.384 813.697 317.564 814.708 317.564L827.522 317.564C828.533 317.564 829.353 318.384 829.353 319.395L829.353 332.209C829.353 333.22 828.533 334.039 827.522 334.039L814.708 334.039C813.697 334.039 812.878 333.22 812.878 332.209Z" fill="#2F2F2F"/><path d="M832.802 332.209 832.802 319.395C832.802 318.384 833.622 317.564 834.633 317.564L847.447 317.564C848.458 317.564 849.277 318.384 849.277 319.395L849.277 332.209C849.277 333.22 848.458 334.039 847.447 334.039L834.633 334.039C833.622 334.039 832.802 333.22 832.802 332.209Z" fill="#2F2F2F"/><path d="M852.727 332.209 852.727 319.395C852.727 318.384 853.546 317.564 854.557 317.564L867.371 317.564C868.382 317.564 869.202 318.384 869.202 319.395L869.202 332.209C869.202 333.22 868.382 334.039 867.371 334.039L854.557 334.039C853.546 334.039 852.727 333.22 852.727 332.209Z" fill="#2F2F2F"/><path d="M872.651 332.209 872.651 319.395C872.651 318.384 873.471 317.564 874.482 317.564L887.296 317.564C888.307 317.564 889.126 318.384 889.126 319.395L889.126 332.209C889.126 333.22 888.307 334.039 887.296 334.039L874.482 334.039C873.471 334.039 872.651 333.22 872.651 332.209Z" fill="#2F2F2F"/><path d="M892.576 332.209 892.576 319.395C892.576 318.384 893.395 317.564 894.406 317.564L907.22 317.564C908.231 317.564 909.051 318.384 909.051 319.395L909.051 332.209C909.051 333.22 908.231 334.039 907.22 334.039L894.406 334.039C893.395 334.039 892.576 333.22 892.576 332.209Z" fill="#2F2F2F"/><path d="M912.501 332.209 912.501 319.395C912.501 318.384 913.32 317.564 914.331 317.564L927.145 317.564C928.156 317.564 928.976 318.384 928.976 319.395L928.976 332.209C928.976 333.22 928.156 334.039 927.145 334.039L914.331 334.039C913.32 334.039 912.501 333.22 912.501 332.209Z" fill="#2F2F2F"/><path d="M932.425 332.209 932.425 319.395C932.425 318.384 933.245 317.564 934.256 317.564L947.07 317.564C948.081 317.564 948.901 318.384 948.901 319.395L948.901 332.209C948.901 333.22 948.081 334.039 947.07 334.039L934.256 334.039C933.244 334.039 932.425 333.22 932.425 332.209Z" fill="#2F2F2F"/><path d="M952.35 332.209 952.35 319.395C952.35 318.384 953.169 317.564 954.18 317.564L966.994 317.564C968.005 317.564 968.825 318.384 968.825 319.395L968.825 332.209C968.825 333.22 968.005 334.039 966.994 334.039L954.18 334.039C953.169 334.039 952.35 333.22 952.35 332.209Z" fill="#2F2F2F"/><path d="M972.274 332.209 972.274 319.395C972.274 318.384 973.094 317.564 974.105 317.564L986.919 317.564C987.93 317.564 988.75 318.384 988.75 319.395L988.75 332.209C988.75 333.22 987.93 334.039 986.919 334.039L974.105 334.039C973.094 334.039 972.274 333.22 972.274 332.209Z" fill="#2F2F2F"/><path d="M777.497 355.09 744.6 355.09C743.589 355.09 742.769 354.271 742.769 353.26L742.769 340.446C742.769 339.435 743.589 338.615 744.6 338.615L777.497 338.615C778.508 338.615 779.328 339.435 779.328 340.446L779.328 353.26C779.328 354.271 778.508 355.09 777.497 355.09Z" fill="#2F2F2F"/><path d="M782.619 353.26 782.619 340.446C782.619 339.435 783.438 338.615 784.449 338.615L797.263 338.615C798.274 338.615 799.094 339.435 799.094 340.446L799.094 353.26C799.094 354.271 798.274 355.09 797.263 355.09L784.449 355.09C783.438 355.09 782.619 354.271 782.619 353.26Z" fill="#2F2F2F"/><path d="M802.543 353.26 802.543 340.446C802.543 339.435 803.363 338.615 804.374 338.615L817.188 338.615C818.199 338.615 819.018 339.435 819.018 340.446L819.018 353.26C819.018 354.271 818.199 355.09 817.188 355.09L804.374 355.09C803.363 355.09 802.543 354.271 802.543 353.26Z" fill="#2F2F2F"/><path d="M822.469 353.26 822.469 340.446C822.469 339.435 823.288 338.615 824.299 338.615L837.113 338.615C838.124 338.615 838.944 339.435 838.944 340.446L838.944 353.26C838.944 354.271 838.124 355.09 837.113 355.09L824.299 355.09C823.287 355.09 822.469 354.271 822.469 353.26Z" fill="#2F2F2F"/><path d="M842.393 353.26 842.393 340.446C842.393 339.435 843.213 338.615 844.224 338.615L857.037 338.615C858.049 338.615 858.868 339.435 858.868 340.446L858.868 353.26C858.868 354.271 858.049 355.09 857.037 355.09L844.224 355.09C843.213 355.09 842.393 354.271 842.393 353.26Z" fill="#2F2F2F"/><path d="M862.318 353.26 862.318 340.446C862.318 339.435 863.137 338.615 864.148 338.615L876.962 338.615C877.973 338.615 878.793 339.435 878.793 340.446L878.793 353.26C878.793 354.271 877.973 355.09 876.962 355.09L864.148 355.09C863.137 355.09 862.318 354.271 862.318 353.26Z" fill="#2F2F2F"/><path d="M882.242 353.26 882.242 340.446C882.242 339.435 883.062 338.615 884.073 338.615L896.886 338.615C897.897 338.615 898.717 339.435 898.717 340.446L898.717 353.26C898.717 354.271 897.897 355.09 896.886 355.09L884.073 355.09C883.062 355.09 882.242 354.271 882.242 353.26Z" fill="#2F2F2F"/><path d="M902.167 353.26 902.167 340.446C902.167 339.435 902.986 338.615 903.997 338.615L916.811 338.615C917.822 338.615 918.642 339.435 918.642 340.446L918.642 353.26C918.642 354.271 917.822 355.09 916.811 355.09L903.997 355.09C902.986 355.09 902.167 354.271 902.167 353.26Z" fill="#2F2F2F"/><path d="M922.092 353.26 922.092 340.446C922.092 339.435 922.911 338.615 923.922 338.615L936.736 338.615C937.747 338.615 938.567 339.435 938.567 340.446L938.567 353.26C938.567 354.271 937.747 355.09 936.736 355.09L923.922 355.09C922.911 355.09 922.092 354.271 922.092 353.26Z" fill="#2F2F2F"/><path d="M942.016 353.26 942.016 340.446C942.016 339.435 942.836 338.615 943.847 338.615L956.661 338.615C957.672 338.615 958.492 339.435 958.492 340.446L958.492 353.26C958.492 354.271 957.672 355.09 956.661 355.09L943.847 355.09C942.835 355.09 942.016 354.271 942.016 353.26Z" fill="#2F2F2F"/><path d="M961.941 353.26 961.941 340.446C961.941 339.435 962.76 338.615 963.771 338.615L976.585 338.615C977.596 338.615 978.416 339.435 978.416 340.446L978.416 353.26C978.416 354.271 977.596 355.09 976.585 355.09L963.771 355.09C962.76 355.09 961.941 354.271 961.941 353.26Z" fill="#2F2F2F"/><path d="M981.865 353.26 981.865 340.446C982.58 339.731 982.981 339.33 983.696 338.615L1016.38 338.615C1017.1 339.33 1017.5 339.731 1018.21 340.446L1018.21 353.26C1017.5 353.974 1017.1 354.376 1016.38 355.09L983.696 355.09C982.981 354.376 982.58 353.975 981.865 353.26Z" fill="#2F2F2F"/><path d="M757.414 375.725 744.6 375.725C743.589 375.725 742.77 374.906 742.77 373.895L742.77 361.081C742.77 360.07 743.589 359.25 744.6 359.25L757.414 359.25C758.425 359.25 759.245 360.07 759.245 361.081L759.245 373.895C759.244 374.906 758.424 375.725 757.414 375.725Z" fill="#2F2F2F"/><path d="M762.694 373.895 762.694 361.081C762.694 360.07 763.514 359.25 764.525 359.25L777.339 359.25C778.35 359.25 779.169 360.07 779.169 361.081L779.169 373.895C779.169 374.906 778.35 375.725 777.339 375.725L764.525 375.725C763.514 375.725 762.694 374.906 762.694 373.895Z" fill="#2F2F2F"/><path d="M782.619 373.895 782.619 361.081C782.619 360.07 783.438 359.25 784.449 359.25L797.263 359.25C798.274 359.25 799.094 360.07 799.094 361.081L799.094 373.895C799.094 374.906 798.274 375.725 797.263 375.725L784.449 375.725C783.438 375.725 782.619 374.906 782.619 373.895Z" fill="#2F2F2F"/><path d="M802.543 373.895 802.543 361.081C803.554 361.081 804.374 360.261 804.374 359.25L817.188 359.25C817.188 360.261 818.008 361.081 819.018 361.081L819.018 373.895C818.008 373.895 817.188 374.714 817.188 375.725L804.374 375.725C804.374 374.714 803.554 373.895 802.543 373.895Z" fill="#2F2F2F"/><path d="M822.083 373.895 822.083 361.081C822.083 360.07 822.903 359.25 823.914 359.25L936.807 359.25C937.818 359.25 938.637 360.07 938.637 361.081L938.637 373.895C938.637 374.906 937.818 375.725 936.807 375.725L823.913 375.725C822.902 375.725 822.083 374.906 822.083 373.895Z" fill="#2F2F2F"/><path d="M942.016 373.895 942.016 361.081C942.016 360.07 942.836 359.25 943.847 359.25L956.661 359.25C957.672 359.25 958.492 360.07 958.492 361.081L958.492 373.895C958.492 374.906 957.672 375.725 956.661 375.725L943.847 375.725C942.835 375.725 942.016 374.906 942.016 373.895Z" fill="#2F2F2F"/><path d="M962.019 373.895 962.019 361.081C962.019 360.07 962.839 359.25 963.849 359.25L976.663 359.25C977.674 359.25 978.494 360.07 978.494 361.081L978.494 373.895C978.494 374.906 977.674 375.725 976.663 375.725L963.849 375.725C962.839 375.725 962.019 374.906 962.019 373.895Z" fill="#2F2F2F"/><path d="M1001.69 373.973 1001.69 361.159C1001.69 360.148 1002.51 359.328 1003.52 359.328L1016.34 359.328C1017.35 359.328 1018.17 360.148 1018.17 361.159L1018.17 373.973C1018.17 374.984 1017.35 375.803 1016.34 375.803L1003.52 375.803C1002.51 375.803 1001.69 374.984 1001.69 373.973Z" fill="#2F2F2F"/><path d="M996.913 366.75 984.099 366.75C983.089 366.75 982.269 365.93 982.269 364.919L982.269 361.08C982.269 360.069 983.089 359.249 984.099 359.249L996.913 359.249C997.924 359.249 998.744 360.069 998.744 361.08L998.744 364.919C998.744 365.93 997.924 366.75 996.913 366.75Z" fill="#2F2F2F"/><path d="M996.913 375.75 984.099 375.75C983.089 375.75 982.269 374.93 982.269 373.919L982.269 370.08C982.269 369.069 983.089 368.249 984.099 368.249L996.913 368.249C997.924 368.249 998.744 369.069 998.744 370.08L998.744 373.919C998.744 374.93 997.924 375.75 996.913 375.75Z" fill="#2F2F2F"/><path d="M690.924 99.2497 690.924 95.1105C690.924 89.4997 694.01 84.2497 699.729 84.2497L1060.93 84.2497C1066.65 84.2497 1069.73 88.7497 1069.73 95.1105L1069.73 99.9997 690.924 99.2497Z" fill="#CFCFCF"/><path d="M728.68 229.872 842.079 229.872 962.08 109.872 704.091 109.872Z" fill="#F2F2F2"/><path d="M1032.56 229.497 1055.95 110.247 959.372 110.247 840.121 229.497Z" fill="#E6E6E6"/><path d="M730.328 228.493 706.304 111.25 959.867 111.25 980.48 90.6367 979.338 90.282 699.747 90.282C694.022 90.282 689.752 95.5575 690.945 101.157L719.06 233.126C719.945 237.28 723.615 240.251 727.863 240.251L830.867 240.251 842.623 228.494 730.328 228.494Z" fill="#2F2F2F"/><path d="M1060.91 90.282 979.335 90.282 958.366 111.251 1053.31 111.251 1030.33 228.494 841.123 228.494 829.367 240.251 1032.79 240.251C1037.04 240.251 1040.71 237.28 1041.6 233.126L1069.71 101.157C1070.9 95.5575 1066.63 90.282 1060.91 90.282Z" fill="#505050"/><path d="M920.677 180.898 842.677 180.898C841.435 180.898 840.427 179.891 840.427 178.648 840.427 177.405 841.435 176.398 842.677 176.398L920.677 176.398C921.92 176.398 922.927 177.405 922.927 178.648 922.927 179.891 921.92 180.898 920.677 180.898Z" fill="#FFFFFF"/></g></svg>